<?xml version="1.0" encoding="utf-8"?>
<!-- Generator: Adobe Illustrator 15.1.0, SVG Export Plug-In . SVG Version: 6.00 Build 0)  -->
<!DOCTYPE svg PUBLIC "-//W3C//DTD SVG 1.1//EN" "http://www.w3.org/Graphics/SVG/1.1/DTD/svg11.dtd">
<svg version="1.1" id="Warstwa_1" xmlns="http://www.w3.org/2000/svg" xmlns:xlink="http://www.w3.org/1999/xlink" x="0px" y="0px"
	 width="173.2px" height="200px" viewBox="0 0 173.2 200" enable-background="new 0 0 173.2 200" xml:space="preserve">
<path fill="#FFFFFF" d="M61.91,181.473c-1.415,0-2.854-0.238-4.263-0.746c-33.914-12.184-56.699-44.582-56.699-80.621
	c0-36.386,23.083-68.885,57.441-80.872c6.574-2.299,13.768,1.176,16.061,7.753c2.293,6.575-1.177,13.767-7.753,16.061
	C42.458,51.505,26.17,74.435,26.17,100.106c0,25.427,16.078,48.287,40.004,56.882c6.555,2.354,9.96,9.58,7.605,16.131
	C71.931,178.268,67.081,181.473,61.91,181.473z"/>
<path fill="#FFFFFF" d="M110.657,181.688c-5.215,0-10.093-3.258-11.908-8.459c-2.293-6.576,1.178-13.769,7.756-16.062
	c24.238-8.455,40.524-31.387,40.524-57.059c0-25.922-16.495-48.923-41.048-57.234c-6.598-2.232-10.137-9.39-7.9-15.987
	c2.233-6.599,9.395-10.138,15.988-7.902c34.801,11.78,58.184,44.38,58.184,81.124c0,36.388-23.084,68.888-57.44,80.876
	C113.437,181.46,112.034,181.688,110.657,181.688z"/>
</svg>
