<?xml version="1.0" encoding="utf-8"?>
<!-- Generator: Adobe Illustrator 15.1.0, SVG Export Plug-In . SVG Version: 6.00 Build 0)  -->
<!DOCTYPE svg PUBLIC "-//W3C//DTD SVG 1.1//EN" "http://www.w3.org/Graphics/SVG/1.1/DTD/svg11.dtd">
<svg version="1.1" id="Warstwa_1" xmlns="http://www.w3.org/2000/svg" xmlns:xlink="http://www.w3.org/1999/xlink" x="0px" y="0px"
	 width="707.1px" height="200px" viewBox="0 0 707.1 200" enable-background="new 0 0 707.1 200" xml:space="preserve">
<g>
	<path fill="#FFFFFF" d="M322.626,170.77c-5.012,1.916-10.151,3.338-15.413,4.254c-5.27,0.922-10.704,1.381-16.299,1.381
		c-17.533,0-31.036-4.75-40.5-14.252c-9.467-9.508-14.199-23.389-14.199-41.659c0-8.767,1.363-16.722,4.088-23.868
		c2.725-7.145,6.558-13.26,11.49-18.343c4.938-5.082,10.832-9.005,17.682-11.769c6.852-2.762,14.401-4.144,22.653-4.144
		c5.744,0,11.123,0.406,16.133,1.217c5.01,0.809,9.797,2.136,14.365,3.978v18.342c-4.79-2.503-9.668-4.327-14.64-5.469
		c-4.974-1.141-10.113-1.713-15.416-1.713c-4.936,0-9.596,0.94-13.979,2.817c-4.381,1.879-8.233,4.587-11.547,8.122
		c-3.317,3.538-5.932,7.846-7.846,12.928c-1.916,5.085-2.872,10.829-2.872,17.237c0,13.41,3.26,23.445,9.78,30.111
		c6.519,6.67,15.559,10.002,27.127,10.002c5.228,0,10.293-0.592,15.192-1.77s9.633-2.949,14.201-5.304V170.77L322.626,170.77z"/>
	<path fill="#FFFFFF" d="M450.254,173.311c-4.347,1.106-8.841,1.897-13.479,2.375c-4.641,0.48-9.357,0.719-14.146,0.719
		c-13.92,0-24.312-3.147-31.16-9.446c-6.854-6.299-10.277-15.97-10.277-29.007V80.049h-31.05V63.916h31.05V33.418l19.229-4.972
		v35.47h49.835v16.133h-49.835v56.355c0,7.957,2.115,13.906,6.35,17.844c4.239,3.943,10.483,5.914,18.734,5.914
		c3.534,0,7.403-0.273,11.602-0.83c4.199-0.553,8.578-1.414,13.149-2.596V173.311L450.254,173.311z"/>
	<path fill="#FFFFFF" d="M574.455,174.859h-17.24l-0.66-17.903c-3.315,3.836-6.465,7.019-9.448,9.56
		c-2.979,2.543-5.946,4.586-8.896,6.133c-2.946,1.549-5.912,2.634-8.894,3.261c-2.985,0.626-6.133,0.938-9.447,0.938
		c-11.421,0-20.039-3.35-25.86-10.056c-5.818-6.705-8.729-16.834-8.729-30.388V63.916h19.229v70.939
		c0,17.02,6.407,25.527,19.229,25.527c2.354,0,4.655-0.348,6.901-1.052c2.249-0.698,4.604-1.915,7.075-3.644
		c2.464-1.733,5.115-4.074,7.955-7.021c2.834-2.944,6.021-6.662,9.56-11.157V63.916h19.226V174.859L574.455,174.859z"/>
	<path fill="#FFFFFF" d="M703.407,113.533c0,2.724-0.036,5.009-0.111,6.846c-0.069,1.844-0.184,3.577-0.329,5.196h-77.904
		c0,11.344,3.169,20.055,9.505,26.134c6.334,6.076,15.472,9.119,27.407,9.119c3.237,0,6.478-0.126,9.725-0.393
		c3.238-0.254,6.368-0.604,9.39-1.049c3.02-0.439,5.907-0.939,8.672-1.486c2.765-0.558,5.321-1.164,7.684-1.828v15.805
		c-5.231,1.471-11.146,2.669-17.737,3.592c-6.59,0.918-13.427,1.379-20.497,1.379c-9.504,0-17.681-1.289-24.533-3.867
		c-6.851-2.578-12.467-6.314-16.852-11.215c-4.38-4.898-7.622-10.902-9.722-18.013c-2.101-7.11-3.147-15.153-3.147-24.146
		c0-7.805,1.12-15.192,3.368-22.155c2.246-6.959,5.524-13.074,9.838-18.341c4.308-5.266,9.592-9.449,15.854-12.542
		c6.259-3.094,13.371-4.641,21.325-4.641c7.737,0,14.587,1.217,20.552,3.646c5.972,2.434,10.995,5.875,15.087,10.333
		c4.088,4.457,7.183,9.874,9.281,16.243C702.359,98.524,703.407,105.646,703.407,113.533z M683.407,110.77
		c0.224-4.935-0.259-9.447-1.438-13.537c-1.18-4.088-3.001-7.606-5.468-10.553c-2.469-2.946-5.543-5.248-9.227-6.907
		c-3.688-1.655-7.954-2.484-12.816-2.484c-4.202,0-8.028,0.809-11.493,2.429c-3.465,1.621-6.445,3.906-8.95,6.854
		c-2.506,2.943-4.533,6.48-6.074,10.606c-1.553,4.126-2.509,8.658-2.878,13.591H683.407z"/>
</g>
<path fill="#FFFFFF" d="M76.558,199.613c-1.731,0-3.491-0.293-5.214-0.912C29.867,183.8,2,144.175,2,100.099
	c0-44.5,28.23-84.248,70.25-98.909c8.041-2.812,16.838,1.438,19.643,9.482c2.805,8.042-1.439,16.837-9.482,19.643
	c-29.645,10.344-49.564,38.388-49.564,69.784c0,31.098,19.663,59.055,48.926,69.57c8.016,2.88,12.181,11.716,9.301,19.728
	C88.813,195.693,82.881,199.613,76.558,199.613z"/>
<path fill="#FFFFFF" d="M136.176,199.876c-6.378,0-12.343-3.983-14.564-10.347c-2.805-8.043,1.44-16.84,9.484-19.646
	c29.646-10.34,49.564-38.385,49.564-69.785c0-31.704-20.174-59.834-50.202-69.999c-8.069-2.73-12.396-11.484-9.664-19.553
	c2.731-8.071,11.49-12.399,19.555-9.665c42.562,14.408,71.159,54.279,71.159,99.216c0,44.504-28.231,84.252-70.251,98.915
	C139.576,199.598,137.86,199.876,136.176,199.876z"/>
</svg>
